<svg width="800" height="800" viewBox="0 0 800 800" fill="none" xmlns="http://www.w3.org/2000/svg">
  <rect width="800" height="800" fill="url(#bg)" rx="56"/>
  <defs>
    <linearGradient id="bg" x1="0" y1="0" x2="1" y2="1">
      <stop offset="0%" stop-color="#ffffff"/>
      <stop offset="100%" stop-color="#f7f7f7"/>
    </linearGradient>
    <filter id="shadow" x="-20" y="-20" width="840" height="840" filterUnits="userSpaceOnUse" color-interpolation-filters="sRGB">
      <feDropShadow dx="0" dy="18" stdDeviation="28" flood-color="#0f172a" flood-opacity="0.18"/>
    </filter>
  </defs>
  <g filter="url(#shadow)" transform="translate(150,140)">
    <path d="M120 330L0 80L70 80L140 230L210 80L280 80L160 330H120Z" fill="#059669"/>
    <path d="M240 330L360 80L430 80L310 330H240Z" fill="#059669"/>
    <path d="M360 330L480 80L550 80L430 330H360Z" fill="#059669"/>
    <path d="M350 60L390 0L430 60H350Z" fill="#059669"/>
    <path d="M0 80H70L170 280L140 330L0 80Z" fill="#0b1a14" fill-opacity="0.08"/>
    <path d="M550 80L520 140L430 330H360L480 80H550Z" fill="#0b1a14" fill-opacity="0.08"/>
  </g>
  <g transform="translate(95,470)">
    <text x="0" y="66" fill="#0f172a" font-family="'Montserrat', 'Inter', 'Segoe UI', sans-serif" font-size="96" font-weight="700" letter-spacing="4">Menville</text>
    <text x="6" y="128" fill="#059669" font-family="'Montserrat', 'Inter', 'Segoe UI', sans-serif" font-size="32" font-weight="600" letter-spacing="12">WEAR YOUR DREAMS</text>
    <text x="6" y="172" fill="#9ca3af" font-family="'Montserrat', 'Inter', 'Segoe UI', sans-serif" font-size="24" font-weight="600" letter-spacing="8">SINCE 2015</text>
  </g>
</svg>
